G04 Layer_Color=255*
%FSTAX24Y24*%
%MOIN*%
G70*
G01*
G75*
%ADD18R,0.0827X0.0827*%
%ADD19C,0.0827*%
%ADD20C,0.0630*%
%ADD21R,0.0630X0.0630*%
%ADD22R,0.0630X0.0630*%
%ADD23C,0.1575*%
%ADD24R,0.1000X0.1600*%
%ADD25R,0.1600X0.1000*%
%ADD26R,0.0598X0.0598*%
%ADD27C,0.0598*%
%ADD28R,0.0598X0.0598*%
%ADD29C,0.0480*%
%ADD30O,0.0709X0.0945*%
%ADD31C,0.0594*%
%ADD32R,0.0594X0.0594*%
D18*
X039173Y108307D02*
D03*
X020928Y10811D02*
D03*
X031917D02*
D03*
X015433Y10815D02*
D03*
X026422Y10811D02*
D03*
X053189Y107992D02*
D03*
X054646Y052441D02*
D03*
X061293D02*
D03*
D19*
X037205Y108307D02*
D03*
X022896Y10811D02*
D03*
X033885D02*
D03*
X017402Y10815D02*
D03*
X028391Y10811D02*
D03*
X055157Y107992D02*
D03*
X052677Y052441D02*
D03*
X059325D02*
D03*
D20*
X046244Y108268D02*
D03*
X047244D02*
D03*
X048244D02*
D03*
X044882Y089228D02*
D03*
Y088228D02*
D03*
X047024Y078161D02*
D03*
X046024D02*
D03*
X045024D02*
D03*
X046024Y079161D02*
D03*
X045024D02*
D03*
X046169Y084228D02*
D03*
Y083228D02*
D03*
Y082228D02*
D03*
X045169Y083228D02*
D03*
Y082228D02*
D03*
D21*
X049244Y108268D02*
D03*
X047024Y079161D02*
D03*
D22*
X044882Y087228D02*
D03*
X045169Y084228D02*
D03*
D23*
X041929Y079331D02*
D03*
Y107717D02*
D03*
X012126D02*
D03*
D24*
X058817Y105207D02*
D03*
D25*
X060787Y106417D02*
D03*
X060797Y104017D02*
D03*
D26*
X054953Y080433D02*
D03*
X017449Y080276D02*
D03*
D27*
X053953Y080433D02*
D03*
X052953D02*
D03*
X051953D02*
D03*
X061417Y071638D02*
D03*
Y070638D02*
D03*
Y069638D02*
D03*
Y068638D02*
D03*
X05189D02*
D03*
Y069638D02*
D03*
Y070638D02*
D03*
Y071638D02*
D03*
Y073638D02*
D03*
Y072638D02*
D03*
X017449Y081276D02*
D03*
X016449D02*
D03*
X015449D02*
D03*
X014449D02*
D03*
X013449D02*
D03*
Y080276D02*
D03*
X014449D02*
D03*
X015449D02*
D03*
X016449D02*
D03*
D28*
X061417Y072638D02*
D03*
X05189Y074638D02*
D03*
D29*
X03311Y062402D02*
D03*
X03211D02*
D03*
D30*
X060386Y060118D02*
D03*
X052449D02*
D03*
D31*
X013551Y053358D02*
D03*
Y054358D02*
D03*
X014551Y053358D02*
D03*
Y054358D02*
D03*
X015551Y053358D02*
D03*
Y054358D02*
D03*
X016551Y053358D02*
D03*
Y054358D02*
D03*
X017551Y053358D02*
D03*
Y054358D02*
D03*
X018551Y053358D02*
D03*
Y054358D02*
D03*
X019551Y053358D02*
D03*
Y054358D02*
D03*
X020551Y053358D02*
D03*
Y054358D02*
D03*
X021551Y053358D02*
D03*
Y054358D02*
D03*
X022551Y053358D02*
D03*
Y054358D02*
D03*
X023551Y053358D02*
D03*
Y054358D02*
D03*
X024551Y053358D02*
D03*
Y054358D02*
D03*
X025551Y053358D02*
D03*
Y054358D02*
D03*
X026551Y053358D02*
D03*
Y054358D02*
D03*
X027551Y053358D02*
D03*
Y054358D02*
D03*
X028551Y053358D02*
D03*
Y054358D02*
D03*
X029551Y053358D02*
D03*
Y054358D02*
D03*
X030551Y053358D02*
D03*
Y054358D02*
D03*
X031551Y053358D02*
D03*
Y054358D02*
D03*
X032551Y053358D02*
D03*
Y054358D02*
D03*
X033551Y053358D02*
D03*
Y054358D02*
D03*
X034551Y053358D02*
D03*
Y054358D02*
D03*
X035551Y053358D02*
D03*
Y054358D02*
D03*
X036551Y053358D02*
D03*
Y054358D02*
D03*
X037551Y053358D02*
D03*
X013551Y073358D02*
D03*
Y074358D02*
D03*
X014551Y073358D02*
D03*
Y074358D02*
D03*
X015551Y073358D02*
D03*
Y074358D02*
D03*
X016551Y073358D02*
D03*
Y074358D02*
D03*
X017551Y073358D02*
D03*
Y074358D02*
D03*
X018551Y073358D02*
D03*
Y074358D02*
D03*
X019551Y073358D02*
D03*
Y074358D02*
D03*
X020551Y073358D02*
D03*
Y074358D02*
D03*
X021551Y073358D02*
D03*
Y074358D02*
D03*
X022551Y073358D02*
D03*
Y074358D02*
D03*
X023551Y073358D02*
D03*
Y074358D02*
D03*
X024551Y073358D02*
D03*
Y074358D02*
D03*
X025551Y073358D02*
D03*
Y074358D02*
D03*
X026551Y073358D02*
D03*
Y074358D02*
D03*
X027551Y073358D02*
D03*
Y074358D02*
D03*
X028551Y073358D02*
D03*
Y074358D02*
D03*
X029551Y073358D02*
D03*
Y074358D02*
D03*
X030551Y073358D02*
D03*
Y074358D02*
D03*
X031551Y073358D02*
D03*
Y074358D02*
D03*
X032551Y073358D02*
D03*
Y074358D02*
D03*
X033551Y073358D02*
D03*
Y074358D02*
D03*
X034551Y073358D02*
D03*
Y074358D02*
D03*
X035551Y073358D02*
D03*
Y074358D02*
D03*
X036551Y073358D02*
D03*
Y074358D02*
D03*
X037551Y073358D02*
D03*
D32*
Y054358D02*
D03*
Y074358D02*
D03*
M02*
