G04 Layer_Color=128*
%FSTAX24Y24*%
%MOIN*%
G70*
G01*
G75*
%ADD67C,0.0020*%
D67*
X038898Y108307D02*
X039449D01*
X039173Y108032D02*
Y108583D01*
X036929Y108307D02*
X03748D01*
X037205Y108032D02*
Y108583D01*
X020652Y10811D02*
X021203D01*
X020928Y107835D02*
Y108386D01*
X022621Y10811D02*
X023172D01*
X022896Y107835D02*
Y108386D01*
X031641Y10811D02*
X032192D01*
X031917Y107835D02*
Y108386D01*
X03361Y10811D02*
X034161D01*
X033885Y107835D02*
Y108386D01*
X015157Y10815D02*
X015709D01*
X015433Y107874D02*
Y108425D01*
X017126Y10815D02*
X017677D01*
X017402Y107874D02*
Y108425D01*
X026147Y10811D02*
X026698D01*
X026422Y107835D02*
Y108386D01*
X028115Y10811D02*
X028666D01*
X028391Y107835D02*
Y108386D01*
X046028Y108268D02*
X046461D01*
X046244Y108051D02*
Y108484D01*
X047028Y108268D02*
X047461D01*
X047244Y108051D02*
Y108484D01*
X048028Y108268D02*
X048461D01*
X048244Y108051D02*
Y108484D01*
X049028Y108268D02*
X049461D01*
X049244Y108051D02*
Y108484D01*
X044665Y089228D02*
X045098D01*
X044882Y089012D02*
Y089445D01*
X044665Y088228D02*
X045098D01*
X044882Y088012D02*
Y088445D01*
X044665Y087228D02*
X045098D01*
X044882Y087012D02*
Y087445D01*
X041339Y079331D02*
X04252D01*
X041929Y07874D02*
Y079921D01*
X052913Y107992D02*
X053465D01*
X053189Y107717D02*
Y108268D01*
X054882Y107992D02*
X055433D01*
X055157Y107717D02*
Y108268D01*
X058567Y105207D02*
X059067D01*
X058817Y104957D02*
Y105457D01*
X060537Y106417D02*
X061037D01*
X060787Y106167D02*
Y106667D01*
X060547Y104017D02*
X061047D01*
X060797Y103767D02*
Y104267D01*
X054752Y080433D02*
X055154D01*
X054953Y080232D02*
Y080634D01*
X053752Y080433D02*
X054154D01*
X053953Y080232D02*
Y080634D01*
X052752Y080433D02*
X053154D01*
X052953Y080232D02*
Y080634D01*
X051752Y080433D02*
X052154D01*
X051953Y080232D02*
Y080634D01*
X046807Y078161D02*
X04724D01*
X047024Y077945D02*
Y078378D01*
X045807Y078161D02*
X04624D01*
X046024Y077945D02*
Y078378D01*
X044807Y078161D02*
X04524D01*
X045024Y077945D02*
Y078378D01*
X046807Y079161D02*
X04724D01*
X047024Y078945D02*
Y079378D01*
X045807Y079161D02*
X04624D01*
X046024Y078945D02*
Y079378D01*
X044807Y079161D02*
X04524D01*
X045024Y078945D02*
Y079378D01*
X041339Y107717D02*
X04252D01*
X041929Y107126D02*
Y108307D01*
X011535Y107717D02*
X012717D01*
X012126Y107126D02*
Y108307D01*
X045953Y084228D02*
X046386D01*
X046169Y084012D02*
Y084445D01*
X045953Y083228D02*
X046386D01*
X046169Y083012D02*
Y083445D01*
X045953Y082228D02*
X046386D01*
X046169Y082012D02*
Y082445D01*
X044953Y084228D02*
X045386D01*
X045169Y084012D02*
Y084445D01*
X044953Y083228D02*
X045386D01*
X045169Y083012D02*
Y083445D01*
X044953Y082228D02*
X045386D01*
X045169Y082012D02*
Y082445D01*
X061217Y072638D02*
X061618D01*
X061417Y072437D02*
Y072839D01*
X061217Y071638D02*
X061618D01*
X061417Y071437D02*
Y071839D01*
X061217Y070638D02*
X061618D01*
X061417Y070437D02*
Y070839D01*
X061217Y069638D02*
X061618D01*
X061417Y069437D02*
Y069839D01*
X061217Y068638D02*
X061618D01*
X061417Y068437D02*
Y068839D01*
X051689Y068638D02*
X052091D01*
X05189Y068437D02*
Y068839D01*
X051689Y069638D02*
X052091D01*
X05189Y069437D02*
Y069839D01*
X051689Y070638D02*
X052091D01*
X05189Y070437D02*
Y070839D01*
X051689Y071638D02*
X052091D01*
X05189Y071437D02*
Y071839D01*
X051689Y073638D02*
X052091D01*
X05189Y073437D02*
Y073839D01*
X051689Y074638D02*
X052091D01*
X05189Y074437D02*
Y074839D01*
X051689Y072638D02*
X052091D01*
X05189Y072437D02*
Y072839D01*
X03297Y062402D02*
X03325D01*
X03311Y062262D02*
Y062542D01*
X03197Y062402D02*
X03225D01*
X03211Y062262D02*
Y062542D01*
X060189Y060118D02*
X060583D01*
X060386Y059921D02*
Y060315D01*
X052252Y060118D02*
X052646D01*
X052449Y059921D02*
Y060315D01*
X017248Y081276D02*
X01765D01*
X017449Y081075D02*
Y081476D01*
X016248Y081276D02*
X01665D01*
X016449Y081075D02*
Y081476D01*
X015248Y081276D02*
X01565D01*
X015449Y081075D02*
Y081476D01*
X014248Y081276D02*
X01465D01*
X014449Y081075D02*
Y081476D01*
X013248Y081276D02*
X01365D01*
X013449Y081075D02*
Y081476D01*
X013248Y080276D02*
X01365D01*
X013449Y080075D02*
Y080476D01*
X014248Y080276D02*
X01465D01*
X014449Y080075D02*
Y080476D01*
X015248Y080276D02*
X01565D01*
X015449Y080075D02*
Y080476D01*
X016248Y080276D02*
X01665D01*
X016449Y080075D02*
Y080476D01*
X017248Y080276D02*
X01765D01*
X017449Y080075D02*
Y080476D01*
X013354Y053358D02*
X013748D01*
X013551Y053161D02*
Y053555D01*
X013354Y054358D02*
X013748D01*
X013551Y054161D02*
Y054555D01*
X014354Y053358D02*
X014748D01*
X014551Y053161D02*
Y053555D01*
X014354Y054358D02*
X014748D01*
X014551Y054161D02*
Y054555D01*
X015354Y053358D02*
X015748D01*
X015551Y053161D02*
Y053555D01*
X015354Y054358D02*
X015748D01*
X015551Y054161D02*
Y054555D01*
X016354Y053358D02*
X016748D01*
X016551Y053161D02*
Y053555D01*
X016354Y054358D02*
X016748D01*
X016551Y054161D02*
Y054555D01*
X017354Y053358D02*
X017748D01*
X017551Y053161D02*
Y053555D01*
X017354Y054358D02*
X017748D01*
X017551Y054161D02*
Y054555D01*
X018354Y053358D02*
X018748D01*
X018551Y053161D02*
Y053555D01*
X018354Y054358D02*
X018748D01*
X018551Y054161D02*
Y054555D01*
X019354Y053358D02*
X019748D01*
X019551Y053161D02*
Y053555D01*
X019354Y054358D02*
X019748D01*
X019551Y054161D02*
Y054555D01*
X020354Y053358D02*
X020748D01*
X020551Y053161D02*
Y053555D01*
X020354Y054358D02*
X020748D01*
X020551Y054161D02*
Y054555D01*
X021354Y053358D02*
X021748D01*
X021551Y053161D02*
Y053555D01*
X021354Y054358D02*
X021748D01*
X021551Y054161D02*
Y054555D01*
X022354Y053358D02*
X022748D01*
X022551Y053161D02*
Y053555D01*
X022354Y054358D02*
X022748D01*
X022551Y054161D02*
Y054555D01*
X023354Y053358D02*
X023748D01*
X023551Y053161D02*
Y053555D01*
X023354Y054358D02*
X023748D01*
X023551Y054161D02*
Y054555D01*
X024354Y053358D02*
X024748D01*
X024551Y053161D02*
Y053555D01*
X024354Y054358D02*
X024748D01*
X024551Y054161D02*
Y054555D01*
X025354Y053358D02*
X025748D01*
X025551Y053161D02*
Y053555D01*
X025354Y054358D02*
X025748D01*
X025551Y054161D02*
Y054555D01*
X026354Y053358D02*
X026748D01*
X026551Y053161D02*
Y053555D01*
X026354Y054358D02*
X026748D01*
X026551Y054161D02*
Y054555D01*
X027354Y053358D02*
X027748D01*
X027551Y053161D02*
Y053555D01*
X027354Y054358D02*
X027748D01*
X027551Y054161D02*
Y054555D01*
X028354Y053358D02*
X028748D01*
X028551Y053161D02*
Y053555D01*
X028354Y054358D02*
X028748D01*
X028551Y054161D02*
Y054555D01*
X029354Y053358D02*
X029748D01*
X029551Y053161D02*
Y053555D01*
X029354Y054358D02*
X029748D01*
X029551Y054161D02*
Y054555D01*
X030354Y053358D02*
X030748D01*
X030551Y053161D02*
Y053555D01*
X030354Y054358D02*
X030748D01*
X030551Y054161D02*
Y054555D01*
X031354Y053358D02*
X031748D01*
X031551Y053161D02*
Y053555D01*
X031354Y054358D02*
X031748D01*
X031551Y054161D02*
Y054555D01*
X032354Y053358D02*
X032748D01*
X032551Y053161D02*
Y053555D01*
X032354Y054358D02*
X032748D01*
X032551Y054161D02*
Y054555D01*
X033354Y053358D02*
X033748D01*
X033551Y053161D02*
Y053555D01*
X033354Y054358D02*
X033748D01*
X033551Y054161D02*
Y054555D01*
X034354Y053358D02*
X034748D01*
X034551Y053161D02*
Y053555D01*
X034354Y054358D02*
X034748D01*
X034551Y054161D02*
Y054555D01*
X035354Y053358D02*
X035748D01*
X035551Y053161D02*
Y053555D01*
X035354Y054358D02*
X035748D01*
X035551Y054161D02*
Y054555D01*
X036354Y053358D02*
X036748D01*
X036551Y053161D02*
Y053555D01*
X036354Y054358D02*
X036748D01*
X036551Y054161D02*
Y054555D01*
X037354Y053358D02*
X037748D01*
X037551Y053161D02*
Y053555D01*
X037354Y054358D02*
X037748D01*
X037551Y054161D02*
Y054555D01*
X013354Y073358D02*
X013748D01*
X013551Y073161D02*
Y073555D01*
X013354Y074358D02*
X013748D01*
X013551Y074161D02*
Y074555D01*
X014354Y073358D02*
X014748D01*
X014551Y073161D02*
Y073555D01*
X014354Y074358D02*
X014748D01*
X014551Y074161D02*
Y074555D01*
X015354Y073358D02*
X015748D01*
X015551Y073161D02*
Y073555D01*
X015354Y074358D02*
X015748D01*
X015551Y074161D02*
Y074555D01*
X016354Y073358D02*
X016748D01*
X016551Y073161D02*
Y073555D01*
X016354Y074358D02*
X016748D01*
X016551Y074161D02*
Y074555D01*
X017354Y073358D02*
X017748D01*
X017551Y073161D02*
Y073555D01*
X017354Y074358D02*
X017748D01*
X017551Y074161D02*
Y074555D01*
X018354Y073358D02*
X018748D01*
X018551Y073161D02*
Y073555D01*
X018354Y074358D02*
X018748D01*
X018551Y074161D02*
Y074555D01*
X019354Y073358D02*
X019748D01*
X019551Y073161D02*
Y073555D01*
X019354Y074358D02*
X019748D01*
X019551Y074161D02*
Y074555D01*
X020354Y073358D02*
X020748D01*
X020551Y073161D02*
Y073555D01*
X020354Y074358D02*
X020748D01*
X020551Y074161D02*
Y074555D01*
X021354Y073358D02*
X021748D01*
X021551Y073161D02*
Y073555D01*
X021354Y074358D02*
X021748D01*
X021551Y074161D02*
Y074555D01*
X022354Y073358D02*
X022748D01*
X022551Y073161D02*
Y073555D01*
X022354Y074358D02*
X022748D01*
X022551Y074161D02*
Y074555D01*
X023354Y073358D02*
X023748D01*
X023551Y073161D02*
Y073555D01*
X023354Y074358D02*
X023748D01*
X023551Y074161D02*
Y074555D01*
X024354Y073358D02*
X024748D01*
X024551Y073161D02*
Y073555D01*
X024354Y074358D02*
X024748D01*
X024551Y074161D02*
Y074555D01*
X025354Y073358D02*
X025748D01*
X025551Y073161D02*
Y073555D01*
X025354Y074358D02*
X025748D01*
X025551Y074161D02*
Y074555D01*
X026354Y073358D02*
X026748D01*
X026551Y073161D02*
Y073555D01*
X026354Y074358D02*
X026748D01*
X026551Y074161D02*
Y074555D01*
X027354Y073358D02*
X027748D01*
X027551Y073161D02*
Y073555D01*
X027354Y074358D02*
X027748D01*
X027551Y074161D02*
Y074555D01*
X028354Y073358D02*
X028748D01*
X028551Y073161D02*
Y073555D01*
X028354Y074358D02*
X028748D01*
X028551Y074161D02*
Y074555D01*
X029354Y073358D02*
X029748D01*
X029551Y073161D02*
Y073555D01*
X029354Y074358D02*
X029748D01*
X029551Y074161D02*
Y074555D01*
X030354Y073358D02*
X030748D01*
X030551Y073161D02*
Y073555D01*
X030354Y074358D02*
X030748D01*
X030551Y074161D02*
Y074555D01*
X031354Y073358D02*
X031748D01*
X031551Y073161D02*
Y073555D01*
X031354Y074358D02*
X031748D01*
X031551Y074161D02*
Y074555D01*
X032354Y073358D02*
X032748D01*
X032551Y073161D02*
Y073555D01*
X032354Y074358D02*
X032748D01*
X032551Y074161D02*
Y074555D01*
X033354Y073358D02*
X033748D01*
X033551Y073161D02*
Y073555D01*
X033354Y074358D02*
X033748D01*
X033551Y074161D02*
Y074555D01*
X034354Y073358D02*
X034748D01*
X034551Y073161D02*
Y073555D01*
X034354Y074358D02*
X034748D01*
X034551Y074161D02*
Y074555D01*
X035354Y073358D02*
X035748D01*
X035551Y073161D02*
Y073555D01*
X035354Y074358D02*
X035748D01*
X035551Y074161D02*
Y074555D01*
X036354Y073358D02*
X036748D01*
X036551Y073161D02*
Y073555D01*
X036354Y074358D02*
X036748D01*
X036551Y074161D02*
Y074555D01*
X037354Y073358D02*
X037748D01*
X037551Y073161D02*
Y073555D01*
X037354Y074358D02*
X037748D01*
X037551Y074161D02*
Y074555D01*
X05437Y052441D02*
X054921D01*
X054646Y052165D02*
Y052717D01*
X052402Y052441D02*
X052953D01*
X052677Y052165D02*
Y052717D01*
X061018Y052441D02*
X061569D01*
X061293Y052165D02*
Y052717D01*
X059049Y052441D02*
X0596D01*
X059325Y052165D02*
Y052717D01*
X013346Y10315D02*
X013425D01*
X013386Y10311D02*
Y103189D01*
X01374Y102362D02*
X013819D01*
X01378Y102323D02*
Y102402D01*
X013346Y101575D02*
X013425D01*
X013386Y101535D02*
Y101614D01*
X01374Y100787D02*
X013819D01*
X01378Y100748D02*
Y100827D01*
X013346Y1D02*
X013425D01*
X013386Y099961D02*
Y100039D01*
X01374Y099213D02*
X013819D01*
X01378Y099173D02*
Y099252D01*
X013346Y098425D02*
X013425D01*
X013386Y098386D02*
Y098465D01*
X01374Y097638D02*
X013819D01*
X01378Y097598D02*
Y097677D01*
X013346Y09685D02*
X013425D01*
X013386Y096811D02*
Y09689D01*
X01374Y096063D02*
X013819D01*
X01378Y096024D02*
Y096102D01*
X013346Y095276D02*
X013425D01*
X013386Y095236D02*
Y095315D01*
X01374Y094488D02*
X013819D01*
X01378Y094449D02*
Y094528D01*
X013346Y093701D02*
X013425D01*
X013386Y093661D02*
Y09374D01*
X012559Y10315D02*
X012638D01*
X012598Y10311D02*
Y103189D01*
X012953Y102362D02*
X013032D01*
X012992Y102323D02*
Y102402D01*
X012559Y101575D02*
X012638D01*
X012598Y101535D02*
Y101614D01*
X012953Y100787D02*
X013032D01*
X012992Y100748D02*
Y100827D01*
X012559Y1D02*
X012638D01*
X012598Y099961D02*
Y100039D01*
X012953Y099213D02*
X013032D01*
X012992Y099173D02*
Y099252D01*
X012559Y098425D02*
X012638D01*
X012598Y098386D02*
Y098465D01*
X012953Y097638D02*
X013032D01*
X012992Y097598D02*
Y097677D01*
X012559Y09685D02*
X012638D01*
X012598Y096811D02*
Y09689D01*
X012953Y096063D02*
X013032D01*
X012992Y096024D02*
Y096102D01*
X012559Y095276D02*
X012638D01*
X012598Y095236D02*
Y095315D01*
X012953Y094488D02*
X013032D01*
X012992Y094449D02*
Y094528D01*
X012559Y093701D02*
X012638D01*
X012598Y093661D02*
Y09374D01*
X011772Y10315D02*
X01185D01*
X011811Y10311D02*
Y103189D01*
X012165Y102362D02*
X012244D01*
X012205Y102323D02*
Y102402D01*
X011772Y101575D02*
X01185D01*
X011811Y101535D02*
Y101614D01*
X012165Y100787D02*
X012244D01*
X012205Y100748D02*
Y100827D01*
X011772Y1D02*
X01185D01*
X011811Y099961D02*
Y100039D01*
X012165Y099213D02*
X012244D01*
X012205Y099173D02*
Y099252D01*
X011772Y098425D02*
X01185D01*
X011811Y098386D02*
Y098465D01*
X012165Y097638D02*
X012244D01*
X012205Y097598D02*
Y097677D01*
X011772Y09685D02*
X01185D01*
X011811Y096811D02*
Y09689D01*
X012165Y096063D02*
X012244D01*
X012205Y096024D02*
Y096102D01*
X011772Y095276D02*
X01185D01*
X011811Y095236D02*
Y095315D01*
X012165Y094488D02*
X012244D01*
X012205Y094449D02*
Y094528D01*
X011772Y093701D02*
X01185D01*
X011811Y093661D02*
Y09374D01*
X058622Y087402D02*
X058701D01*
X058661Y087362D02*
Y087441D01*
X058228Y086614D02*
X058307D01*
X058268Y086575D02*
Y086654D01*
X058622Y085827D02*
X058701D01*
X058661Y085787D02*
Y085866D01*
X058228Y085039D02*
X058307D01*
X058268Y085D02*
Y085079D01*
X058622Y084252D02*
X058701D01*
X058661Y084213D02*
Y084291D01*
X058228Y083465D02*
X058307D01*
X058268Y083425D02*
Y083504D01*
X057835Y087402D02*
X057913D01*
X057874Y087362D02*
Y087441D01*
X057441Y086614D02*
X05752D01*
X05748Y086575D02*
Y086654D01*
X057835Y085827D02*
X057913D01*
X057874Y085787D02*
Y085866D01*
X057441Y085039D02*
X05752D01*
X05748Y085D02*
Y085079D01*
X057835Y084252D02*
X057913D01*
X057874Y084213D02*
Y084291D01*
X057441Y083465D02*
X05752D01*
X05748Y083425D02*
Y083504D01*
X057047Y087402D02*
X057126D01*
X057087Y087362D02*
Y087441D01*
X056654Y086614D02*
X056732D01*
X056693Y086575D02*
Y086654D01*
X057047Y085827D02*
X057126D01*
X057087Y085787D02*
Y085866D01*
X056654Y085039D02*
X056732D01*
X056693Y085D02*
Y085079D01*
X057047Y084252D02*
X057126D01*
X057087Y084213D02*
Y084291D01*
X056654Y083465D02*
X056732D01*
X056693Y083425D02*
Y083504D01*
X05626Y087402D02*
X056339D01*
X056299Y087362D02*
Y087441D01*
X055866Y086614D02*
X055945D01*
X055906Y086575D02*
Y086654D01*
X05626Y085827D02*
X056339D01*
X056299Y085787D02*
Y085866D01*
X055866Y085039D02*
X055945D01*
X055906Y085D02*
Y085079D01*
X05626Y084252D02*
X056339D01*
X056299Y084213D02*
Y084291D01*
X055866Y083465D02*
X055945D01*
X055906Y083425D02*
Y083504D01*
X055472Y087402D02*
X055551D01*
X055512Y087362D02*
Y087441D01*
X055079Y086614D02*
X055158D01*
X055118Y086575D02*
Y086654D01*
X055472Y085827D02*
X055551D01*
X055512Y085787D02*
Y085866D01*
X055079Y085039D02*
X055158D01*
X055118Y085D02*
Y085079D01*
X055472Y084252D02*
X055551D01*
X055512Y084213D02*
Y084291D01*
X055079Y083465D02*
X055158D01*
X055118Y083425D02*
Y083504D01*
X054685Y087402D02*
X054764D01*
X054724Y087362D02*
Y087441D01*
X054291Y086614D02*
X05437D01*
X054331Y086575D02*
Y086654D01*
X054685Y085827D02*
X054764D01*
X054724Y085787D02*
Y085866D01*
X054291Y085039D02*
X05437D01*
X054331Y085D02*
Y085079D01*
X054685Y084252D02*
X054764D01*
X054724Y084213D02*
Y084291D01*
X054291Y083465D02*
X05437D01*
X054331Y083425D02*
Y083504D01*
X053898Y087402D02*
X053976D01*
X053937Y087362D02*
Y087441D01*
X053504Y086614D02*
X053583D01*
X053543Y086575D02*
Y086654D01*
X053898Y085827D02*
X053976D01*
X053937Y085787D02*
Y085866D01*
X053504Y085039D02*
X053583D01*
X053543Y085D02*
Y085079D01*
X053898Y084252D02*
X053976D01*
X053937Y084213D02*
Y084291D01*
X053504Y083465D02*
X053583D01*
X053543Y083425D02*
Y083504D01*
X05311Y087402D02*
X053189D01*
X05315Y087362D02*
Y087441D01*
X052717Y086614D02*
X052795D01*
X052756Y086575D02*
Y086654D01*
X05311Y085827D02*
X053189D01*
X05315Y085787D02*
Y085866D01*
X052717Y085039D02*
X052795D01*
X052756Y085D02*
Y085079D01*
X05311Y084252D02*
X053189D01*
X05315Y084213D02*
Y084291D01*
X052717Y083465D02*
X052795D01*
X052756Y083425D02*
Y083504D01*
X035787Y086614D02*
X035866D01*
X035827Y086575D02*
Y086654D01*
X035394Y085827D02*
X035472D01*
X035433Y085787D02*
Y085866D01*
X035787Y085039D02*
X035866D01*
X035827Y085D02*
Y085079D01*
X035394Y084252D02*
X035472D01*
X035433Y084213D02*
Y084291D01*
X035Y086614D02*
X035079D01*
X035039Y086575D02*
Y086654D01*
X034606Y085827D02*
X034685D01*
X034646Y085787D02*
Y085866D01*
X035Y085039D02*
X035079D01*
X035039Y085D02*
Y085079D01*
X034606Y084252D02*
X034685D01*
X034646Y084213D02*
Y084291D01*
X034213Y086614D02*
X034291D01*
X034252Y086575D02*
Y086654D01*
X033819Y085827D02*
X033898D01*
X033858Y085787D02*
Y085866D01*
X034213Y085039D02*
X034291D01*
X034252Y085D02*
Y085079D01*
X033819Y084252D02*
X033898D01*
X033858Y084213D02*
Y084291D01*
X033425Y086614D02*
X033504D01*
X033465Y086575D02*
Y086654D01*
X033032Y085827D02*
X03311D01*
X033071Y085787D02*
Y085866D01*
X033425Y085039D02*
X033504D01*
X033465Y085D02*
Y085079D01*
X033032Y084252D02*
X03311D01*
X033071Y084213D02*
Y084291D01*
X032638Y086614D02*
X032717D01*
X032677Y086575D02*
Y086654D01*
X032244Y085827D02*
X032323D01*
X032283Y085787D02*
Y085866D01*
X032638Y085039D02*
X032717D01*
X032677Y085D02*
Y085079D01*
X032244Y084252D02*
X032323D01*
X032283Y084213D02*
Y084291D01*
X03185Y086614D02*
X031929D01*
X03189Y086575D02*
Y086654D01*
X031457Y085827D02*
X031535D01*
X031496Y085787D02*
Y085866D01*
X03185Y085039D02*
X031929D01*
X03189Y085D02*
Y085079D01*
X031457Y084252D02*
X031535D01*
X031496Y084213D02*
Y084291D01*
X031063Y086614D02*
X031142D01*
X031102Y086575D02*
Y086654D01*
X030669Y085827D02*
X030748D01*
X030709Y085787D02*
Y085866D01*
X031063Y085039D02*
X031142D01*
X031102Y085D02*
Y085079D01*
X030669Y084252D02*
X030748D01*
X030709Y084213D02*
Y084291D01*
X030276Y085039D02*
X030354D01*
X030315Y085D02*
Y085079D01*
X029882Y084252D02*
X029961D01*
X029921Y084213D02*
Y084291D01*
X043268Y099213D02*
X043346D01*
X043307Y099173D02*
Y099252D01*
X043661Y098425D02*
X04374D01*
X043701Y098386D02*
Y098465D01*
X043268Y097638D02*
X043346D01*
X043307Y097598D02*
Y097677D01*
X043661Y09685D02*
X04374D01*
X043701Y096811D02*
Y09689D01*
X043268Y096063D02*
X043346D01*
X043307Y096024D02*
Y096102D01*
X043661Y095276D02*
X04374D01*
X043701Y095236D02*
Y095315D01*
X043268Y094488D02*
X043346D01*
X043307Y094449D02*
Y094528D01*
X04248Y099213D02*
X042559D01*
X04252Y099173D02*
Y099252D01*
X042874Y098425D02*
X042953D01*
X042913Y098386D02*
Y098465D01*
X04248Y097638D02*
X042559D01*
X04252Y097598D02*
Y097677D01*
X042874Y09685D02*
X042953D01*
X042913Y096811D02*
Y09689D01*
X04248Y096063D02*
X042559D01*
X04252Y096024D02*
Y096102D01*
X042874Y095276D02*
X042953D01*
X042913Y095236D02*
Y095315D01*
X04248Y094488D02*
X042559D01*
X04252Y094449D02*
Y094528D01*
X041693Y099213D02*
X041772D01*
X041732Y099173D02*
Y099252D01*
X042087Y098425D02*
X042165D01*
X042126Y098386D02*
Y098465D01*
X041693Y097638D02*
X041772D01*
X041732Y097598D02*
Y097677D01*
X042087Y09685D02*
X042165D01*
X042126Y096811D02*
Y09689D01*
X041693Y096063D02*
X041772D01*
X041732Y096024D02*
Y096102D01*
X042087Y095276D02*
X042165D01*
X042126Y095236D02*
Y095315D01*
X041693Y094488D02*
X041772D01*
X041732Y094449D02*
Y094528D01*
X040906Y099213D02*
X040984D01*
X040945Y099173D02*
Y099252D01*
X041299Y098425D02*
X041378D01*
X041339Y098386D02*
Y098465D01*
X040906Y097638D02*
X040984D01*
X040945Y097598D02*
Y097677D01*
X041299Y09685D02*
X041378D01*
X041339Y096811D02*
Y09689D01*
X040906Y096063D02*
X040984D01*
X040945Y096024D02*
Y096102D01*
X041299Y095276D02*
X041378D01*
X041339Y095236D02*
Y095315D01*
X040906Y094488D02*
X040984D01*
X040945Y094449D02*
Y094528D01*
X040118Y099213D02*
X040197D01*
X040157Y099173D02*
Y099252D01*
X040512Y098425D02*
X040591D01*
X040551Y098386D02*
Y098465D01*
X040118Y097638D02*
X040197D01*
X040157Y097598D02*
Y097677D01*
X040512Y09685D02*
X040591D01*
X040551Y096811D02*
Y09689D01*
X040118Y096063D02*
X040197D01*
X040157Y096024D02*
Y096102D01*
X040512Y095276D02*
X040591D01*
X040551Y095236D02*
Y095315D01*
X040118Y094488D02*
X040197D01*
X040157Y094449D02*
Y094528D01*
X039724Y098425D02*
X039803D01*
X039764Y098386D02*
Y098465D01*
X039331Y097638D02*
X039409D01*
X03937Y097598D02*
Y097677D01*
X039724Y09685D02*
X039803D01*
X039764Y096811D02*
Y09689D01*
X039331Y096063D02*
X039409D01*
X03937Y096024D02*
Y096102D01*
X039724Y095276D02*
X039803D01*
X039764Y095236D02*
Y095315D01*
X039331Y094488D02*
X039409D01*
X03937Y094449D02*
Y094528D01*
X014134Y07874D02*
X014213D01*
X014173Y078701D02*
Y07878D01*
X014134Y077165D02*
X014213D01*
X014173Y077126D02*
Y077205D01*
X014134Y075591D02*
X014213D01*
X014173Y075551D02*
Y07563D01*
X013346Y07874D02*
X013425D01*
X013386Y078701D02*
Y07878D01*
X01374Y077953D02*
X013819D01*
X01378Y077913D02*
Y077992D01*
X013346Y077165D02*
X013425D01*
X013386Y077126D02*
Y077205D01*
X01374Y076378D02*
X013819D01*
X01378Y076339D02*
Y076417D01*
X013346Y075591D02*
X013425D01*
X013386Y075551D02*
Y07563D01*
X060591Y066142D02*
X060669D01*
X06063Y066102D02*
Y066181D01*
X060984Y065354D02*
X061063D01*
X061024Y065315D02*
Y065394D01*
X060591Y064567D02*
X060669D01*
X06063Y064528D02*
Y064606D01*
X060984Y06378D02*
X061063D01*
X061024Y06374D02*
Y063819D01*
X060591Y062992D02*
X060669D01*
X06063Y062953D02*
Y063032D01*
X059803Y066142D02*
X059882D01*
X059843Y066102D02*
Y066181D01*
X060197Y065354D02*
X060276D01*
X060236Y065315D02*
Y065394D01*
X059803Y064567D02*
X059882D01*
X059843Y064528D02*
Y064606D01*
X060197Y06378D02*
X060276D01*
X060236Y06374D02*
Y063819D01*
X059803Y062992D02*
X059882D01*
X059843Y062953D02*
Y063032D01*
X059016Y066142D02*
X059095D01*
X059055Y066102D02*
Y066181D01*
X059409Y065354D02*
X059488D01*
X059449Y065315D02*
Y065394D01*
X059016Y064567D02*
X059095D01*
X059055Y064528D02*
Y064606D01*
X059409Y06378D02*
X059488D01*
X059449Y06374D02*
Y063819D01*
X059016Y062992D02*
X059095D01*
X059055Y062953D02*
Y063032D01*
X058228Y066142D02*
X058307D01*
X058268Y066102D02*
Y066181D01*
X058622Y065354D02*
X058701D01*
X058661Y065315D02*
Y065394D01*
X058228Y064567D02*
X058307D01*
X058268Y064528D02*
Y064606D01*
X058622Y06378D02*
X058701D01*
X058661Y06374D02*
Y063819D01*
X058228Y062992D02*
X058307D01*
X058268Y062953D02*
Y063032D01*
X057441Y066142D02*
X05752D01*
X05748Y066102D02*
Y066181D01*
X057835Y065354D02*
X057913D01*
X057874Y065315D02*
Y065394D01*
X057441Y064567D02*
X05752D01*
X05748Y064528D02*
Y064606D01*
X057835Y06378D02*
X057913D01*
X057874Y06374D02*
Y063819D01*
X057441Y062992D02*
X05752D01*
X05748Y062953D02*
Y063032D01*
X056654Y066142D02*
X056732D01*
X056693Y066102D02*
Y066181D01*
X057047Y065354D02*
X057126D01*
X057087Y065315D02*
Y065394D01*
X056654Y064567D02*
X056732D01*
X056693Y064528D02*
Y064606D01*
X057047Y06378D02*
X057126D01*
X057087Y06374D02*
Y063819D01*
X056654Y062992D02*
X056732D01*
X056693Y062953D02*
Y063032D01*
X055866Y066142D02*
X055945D01*
X055906Y066102D02*
Y066181D01*
X05626Y065354D02*
X056339D01*
X056299Y065315D02*
Y065394D01*
X055866Y064567D02*
X055945D01*
X055906Y064528D02*
Y064606D01*
X05626Y06378D02*
X056339D01*
X056299Y06374D02*
Y063819D01*
X055866Y062992D02*
X055945D01*
X055906Y062953D02*
Y063032D01*
X055079Y066142D02*
X055158D01*
X055118Y066102D02*
Y066181D01*
X055472Y065354D02*
X055551D01*
X055512Y065315D02*
Y065394D01*
X055079Y064567D02*
X055158D01*
X055118Y064528D02*
Y064606D01*
X055472Y06378D02*
X055551D01*
X055512Y06374D02*
Y063819D01*
X055079Y062992D02*
X055158D01*
X055118Y062953D02*
Y063032D01*
X054291Y066142D02*
X05437D01*
X054331Y066102D02*
Y066181D01*
X054685Y065354D02*
X054764D01*
X054724Y065315D02*
Y065394D01*
X054291Y064567D02*
X05437D01*
X054331Y064528D02*
Y064606D01*
X054685Y06378D02*
X054764D01*
X054724Y06374D02*
Y063819D01*
X054291Y062992D02*
X05437D01*
X054331Y062953D02*
Y063032D01*
X053504Y066142D02*
X053583D01*
X053543Y066102D02*
Y066181D01*
X053898Y065354D02*
X053976D01*
X053937Y065315D02*
Y065394D01*
X053504Y064567D02*
X053583D01*
X053543Y064528D02*
Y064606D01*
X053898Y06378D02*
X053976D01*
X053937Y06374D02*
Y063819D01*
X053504Y062992D02*
X053583D01*
X053543Y062953D02*
Y063032D01*
X052717Y066142D02*
X052795D01*
X052756Y066102D02*
Y066181D01*
X05311Y065354D02*
X053189D01*
X05315Y065315D02*
Y065394D01*
X052717Y064567D02*
X052795D01*
X052756Y064528D02*
Y064606D01*
X05311Y06378D02*
X053189D01*
X05315Y06374D02*
Y063819D01*
X052717Y062992D02*
X052795D01*
X052756Y062953D02*
Y063032D01*
X051929Y066142D02*
X052008D01*
X051969Y066102D02*
Y066181D01*
X052323Y065354D02*
X052402D01*
X052362Y065315D02*
Y065394D01*
X051929Y064567D02*
X052008D01*
X051969Y064528D02*
Y064606D01*
X052323Y06378D02*
X052402D01*
X052362Y06374D02*
Y063819D01*
X051929Y062992D02*
X052008D01*
X051969Y062953D02*
Y063032D01*
X041693Y076378D02*
X041772D01*
X041732Y076339D02*
Y076417D01*
X042087Y075591D02*
X042165D01*
X042126Y075551D02*
Y07563D01*
X041693Y074803D02*
X041772D01*
X041732Y074764D02*
Y074843D01*
X042087Y074016D02*
X042165D01*
X042126Y073976D02*
Y074055D01*
X041693Y073228D02*
X041772D01*
X041732Y073189D02*
Y073268D01*
X042087Y072441D02*
X042165D01*
X042126Y072402D02*
Y07248D01*
X041693Y071654D02*
X041772D01*
X041732Y071614D02*
Y071693D01*
X040906Y076378D02*
X040984D01*
X040945Y076339D02*
Y076417D01*
X041299Y075591D02*
X041378D01*
X041339Y075551D02*
Y07563D01*
X040906Y074803D02*
X040984D01*
X040945Y074764D02*
Y074843D01*
X041299Y074016D02*
X041378D01*
X041339Y073976D02*
Y074055D01*
X040906Y073228D02*
X040984D01*
X040945Y073189D02*
Y073268D01*
X041299Y072441D02*
X041378D01*
X041339Y072402D02*
Y07248D01*
X040906Y071654D02*
X040984D01*
X040945Y071614D02*
Y071693D01*
X044843Y067717D02*
X044921D01*
X044882Y067677D02*
Y067756D01*
X044843Y066142D02*
X044921D01*
X044882Y066102D02*
Y066181D01*
X044843Y064567D02*
X044921D01*
X044882Y064528D02*
Y064606D01*
X044843Y062992D02*
X044921D01*
X044882Y062953D02*
Y063032D01*
X044055Y067717D02*
X044134D01*
X044095Y067677D02*
Y067756D01*
X044449Y066929D02*
X044528D01*
X044488Y06689D02*
Y066969D01*
X044055Y066142D02*
X044134D01*
X044095Y066102D02*
Y066181D01*
X044449Y065354D02*
X044528D01*
X044488Y065315D02*
Y065394D01*
X044055Y064567D02*
X044134D01*
X044095Y064528D02*
Y064606D01*
X044449Y06378D02*
X044528D01*
X044488Y06374D02*
Y063819D01*
X044055Y062992D02*
X044134D01*
X044095Y062953D02*
Y063032D01*
X043268Y067717D02*
X043346D01*
X043307Y067677D02*
Y067756D01*
X043661Y066929D02*
X04374D01*
X043701Y06689D02*
Y066969D01*
X043268Y066142D02*
X043346D01*
X043307Y066102D02*
Y066181D01*
X043661Y065354D02*
X04374D01*
X043701Y065315D02*
Y065394D01*
X043268Y064567D02*
X043346D01*
X043307Y064528D02*
Y064606D01*
X043661Y06378D02*
X04374D01*
X043701Y06374D02*
Y063819D01*
X043268Y062992D02*
X043346D01*
X043307Y062953D02*
Y063032D01*
X04248Y067717D02*
X042559D01*
X04252Y067677D02*
Y067756D01*
X042874Y066929D02*
X042953D01*
X042913Y06689D02*
Y066969D01*
X04248Y066142D02*
X042559D01*
X04252Y066102D02*
Y066181D01*
X042874Y065354D02*
X042953D01*
X042913Y065315D02*
Y065394D01*
X04248Y064567D02*
X042559D01*
X04252Y064528D02*
Y064606D01*
X042874Y06378D02*
X042953D01*
X042913Y06374D02*
Y063819D01*
X04248Y062992D02*
X042559D01*
X04252Y062953D02*
Y063032D01*
X041693Y067717D02*
X041772D01*
X041732Y067677D02*
Y067756D01*
X042087Y066929D02*
X042165D01*
X042126Y06689D02*
Y066969D01*
X041693Y066142D02*
X041772D01*
X041732Y066102D02*
Y066181D01*
X042087Y065354D02*
X042165D01*
X042126Y065315D02*
Y065394D01*
X041693Y064567D02*
X041772D01*
X041732Y064528D02*
Y064606D01*
X042087Y06378D02*
X042165D01*
X042126Y06374D02*
Y063819D01*
X041693Y062992D02*
X041772D01*
X041732Y062953D02*
Y063032D01*
X040906Y067717D02*
X040984D01*
X040945Y067677D02*
Y067756D01*
X041299Y066929D02*
X041378D01*
X041339Y06689D02*
Y066969D01*
X040906Y066142D02*
X040984D01*
X040945Y066102D02*
Y066181D01*
X041299Y065354D02*
X041378D01*
X041339Y065315D02*
Y065394D01*
X040906Y064567D02*
X040984D01*
X040945Y064528D02*
Y064606D01*
X041299Y06378D02*
X041378D01*
X041339Y06374D02*
Y063819D01*
X040906Y062992D02*
X040984D01*
X040945Y062953D02*
Y063032D01*
X040512Y066929D02*
X040591D01*
X040551Y06689D02*
Y066969D01*
X040512Y065354D02*
X040591D01*
X040551Y065315D02*
Y065394D01*
X040512Y06378D02*
X040591D01*
X040551Y06374D02*
Y063819D01*
X020433Y069291D02*
X020512D01*
X020472Y069252D02*
Y069331D01*
X020827Y068504D02*
X020906D01*
X020866Y068465D02*
Y068543D01*
X020433Y067717D02*
X020512D01*
X020472Y067677D02*
Y067756D01*
X020827Y066929D02*
X020906D01*
X020866Y06689D02*
Y066969D01*
X020433Y066142D02*
X020512D01*
X020472Y066102D02*
Y066181D01*
X020827Y065354D02*
X020906D01*
X020866Y065315D02*
Y065394D01*
X020433Y064567D02*
X020512D01*
X020472Y064528D02*
Y064606D01*
X020827Y06378D02*
X020906D01*
X020866Y06374D02*
Y063819D01*
X020433Y062992D02*
X020512D01*
X020472Y062953D02*
Y063032D01*
X020827Y062205D02*
X020906D01*
X020866Y062165D02*
Y062244D01*
X020433Y061417D02*
X020512D01*
X020472Y061378D02*
Y061457D01*
X020827Y06063D02*
X020906D01*
X020866Y060591D02*
Y060669D01*
X020433Y059843D02*
X020512D01*
X020472Y059803D02*
Y059882D01*
X019646Y069291D02*
X019724D01*
X019685Y069252D02*
Y069331D01*
X020039Y068504D02*
X020118D01*
X020079Y068465D02*
Y068543D01*
X019646Y067717D02*
X019724D01*
X019685Y067677D02*
Y067756D01*
X020039Y066929D02*
X020118D01*
X020079Y06689D02*
Y066969D01*
X019646Y066142D02*
X019724D01*
X019685Y066102D02*
Y066181D01*
X020039Y065354D02*
X020118D01*
X020079Y065315D02*
Y065394D01*
X019646Y064567D02*
X019724D01*
X019685Y064528D02*
Y064606D01*
X020039Y06378D02*
X020118D01*
X020079Y06374D02*
Y063819D01*
X019646Y062992D02*
X019724D01*
X019685Y062953D02*
Y063032D01*
X020039Y062205D02*
X020118D01*
X020079Y062165D02*
Y062244D01*
X019646Y061417D02*
X019724D01*
X019685Y061378D02*
Y061457D01*
X020039Y06063D02*
X020118D01*
X020079Y060591D02*
Y060669D01*
X019646Y059843D02*
X019724D01*
X019685Y059803D02*
Y059882D01*
X018858Y069291D02*
X018937D01*
X018898Y069252D02*
Y069331D01*
X019252Y068504D02*
X019331D01*
X019291Y068465D02*
Y068543D01*
X018858Y067717D02*
X018937D01*
X018898Y067677D02*
Y067756D01*
X019252Y066929D02*
X019331D01*
X019291Y06689D02*
Y066969D01*
X018858Y066142D02*
X018937D01*
X018898Y066102D02*
Y066181D01*
X019252Y065354D02*
X019331D01*
X019291Y065315D02*
Y065394D01*
X018858Y064567D02*
X018937D01*
X018898Y064528D02*
Y064606D01*
X019252Y06378D02*
X019331D01*
X019291Y06374D02*
Y063819D01*
X018858Y062992D02*
X018937D01*
X018898Y062953D02*
Y063032D01*
X019252Y062205D02*
X019331D01*
X019291Y062165D02*
Y062244D01*
X018858Y061417D02*
X018937D01*
X018898Y061378D02*
Y061457D01*
X019252Y06063D02*
X019331D01*
X019291Y060591D02*
Y060669D01*
X018858Y059843D02*
X018937D01*
X018898Y059803D02*
Y059882D01*
X018071Y069291D02*
X01815D01*
X01811Y069252D02*
Y069331D01*
X018465Y068504D02*
X018543D01*
X018504Y068465D02*
Y068543D01*
X018071Y067717D02*
X01815D01*
X01811Y067677D02*
Y067756D01*
X018465Y066929D02*
X018543D01*
X018504Y06689D02*
Y066969D01*
X018071Y066142D02*
X01815D01*
X01811Y066102D02*
Y066181D01*
X018465Y065354D02*
X018543D01*
X018504Y065315D02*
Y065394D01*
X018071Y064567D02*
X01815D01*
X01811Y064528D02*
Y064606D01*
X018465Y06378D02*
X018543D01*
X018504Y06374D02*
Y063819D01*
X018071Y062992D02*
X01815D01*
X01811Y062953D02*
Y063032D01*
X018465Y062205D02*
X018543D01*
X018504Y062165D02*
Y062244D01*
X018071Y061417D02*
X01815D01*
X01811Y061378D02*
Y061457D01*
X018465Y06063D02*
X018543D01*
X018504Y060591D02*
Y060669D01*
X018071Y059843D02*
X01815D01*
X01811Y059803D02*
Y059882D01*
X017283Y069291D02*
X017362D01*
X017323Y069252D02*
Y069331D01*
X017677Y068504D02*
X017756D01*
X017717Y068465D02*
Y068543D01*
X017283Y067717D02*
X017362D01*
X017323Y067677D02*
Y067756D01*
X017677Y066929D02*
X017756D01*
X017717Y06689D02*
Y066969D01*
X017283Y066142D02*
X017362D01*
X017323Y066102D02*
Y066181D01*
X017677Y065354D02*
X017756D01*
X017717Y065315D02*
Y065394D01*
X017283Y064567D02*
X017362D01*
X017323Y064528D02*
Y064606D01*
X017677Y06378D02*
X017756D01*
X017717Y06374D02*
Y063819D01*
X017283Y062992D02*
X017362D01*
X017323Y062953D02*
Y063032D01*
X017677Y062205D02*
X017756D01*
X017717Y062165D02*
Y062244D01*
X017283Y061417D02*
X017362D01*
X017323Y061378D02*
Y061457D01*
X017677Y06063D02*
X017756D01*
X017717Y060591D02*
Y060669D01*
X017283Y059843D02*
X017362D01*
X017323Y059803D02*
Y059882D01*
X016496Y069291D02*
X016575D01*
X016535Y069252D02*
Y069331D01*
X01689Y068504D02*
X016969D01*
X016929Y068465D02*
Y068543D01*
X016496Y067717D02*
X016575D01*
X016535Y067677D02*
Y067756D01*
X01689Y066929D02*
X016969D01*
X016929Y06689D02*
Y066969D01*
X016496Y066142D02*
X016575D01*
X016535Y066102D02*
Y066181D01*
X01689Y065354D02*
X016969D01*
X016929Y065315D02*
Y065394D01*
X016496Y064567D02*
X016575D01*
X016535Y064528D02*
Y064606D01*
X01689Y06378D02*
X016969D01*
X016929Y06374D02*
Y063819D01*
X016496Y062992D02*
X016575D01*
X016535Y062953D02*
Y063032D01*
X01689Y062205D02*
X016969D01*
X016929Y062165D02*
Y062244D01*
X016496Y061417D02*
X016575D01*
X016535Y061378D02*
Y061457D01*
X01689Y06063D02*
X016969D01*
X016929Y060591D02*
Y060669D01*
X016496Y059843D02*
X016575D01*
X016535Y059803D02*
Y059882D01*
X015709Y069291D02*
X015787D01*
X015748Y069252D02*
Y069331D01*
X016102Y068504D02*
X016181D01*
X016142Y068465D02*
Y068543D01*
X015709Y067717D02*
X015787D01*
X015748Y067677D02*
Y067756D01*
X016102Y066929D02*
X016181D01*
X016142Y06689D02*
Y066969D01*
X015709Y066142D02*
X015787D01*
X015748Y066102D02*
Y066181D01*
X016102Y065354D02*
X016181D01*
X016142Y065315D02*
Y065394D01*
X015709Y064567D02*
X015787D01*
X015748Y064528D02*
Y064606D01*
X016102Y06378D02*
X016181D01*
X016142Y06374D02*
Y063819D01*
X015709Y062992D02*
X015787D01*
X015748Y062953D02*
Y063032D01*
X016102Y062205D02*
X016181D01*
X016142Y062165D02*
Y062244D01*
X015709Y061417D02*
X015787D01*
X015748Y061378D02*
Y061457D01*
X016102Y06063D02*
X016181D01*
X016142Y060591D02*
Y060669D01*
X015709Y059843D02*
X015787D01*
X015748Y059803D02*
Y059882D01*
X014921Y069291D02*
X015D01*
X014961Y069252D02*
Y069331D01*
X015315Y068504D02*
X015394D01*
X015354Y068465D02*
Y068543D01*
X014921Y067717D02*
X015D01*
X014961Y067677D02*
Y067756D01*
X015315Y066929D02*
X015394D01*
X015354Y06689D02*
Y066969D01*
X014921Y066142D02*
X015D01*
X014961Y066102D02*
Y066181D01*
X015315Y065354D02*
X015394D01*
X015354Y065315D02*
Y065394D01*
X014921Y064567D02*
X015D01*
X014961Y064528D02*
Y064606D01*
X015315Y06378D02*
X015394D01*
X015354Y06374D02*
Y063819D01*
X014921Y062992D02*
X015D01*
X014961Y062953D02*
Y063032D01*
X015315Y062205D02*
X015394D01*
X015354Y062165D02*
Y062244D01*
X014921Y061417D02*
X015D01*
X014961Y061378D02*
Y061457D01*
X015315Y06063D02*
X015394D01*
X015354Y060591D02*
Y060669D01*
X014921Y059843D02*
X015D01*
X014961Y059803D02*
Y059882D01*
X032244Y06063D02*
X032323D01*
X032283Y060591D02*
Y060669D01*
X032638Y059843D02*
X032717D01*
X032677Y059803D02*
Y059882D01*
X032244Y059055D02*
X032323D01*
X032283Y059016D02*
Y059095D01*
X031457Y06063D02*
X031535D01*
X031496Y060591D02*
Y060669D01*
X03185Y059843D02*
X031929D01*
X03189Y059803D02*
Y059882D01*
X031457Y059055D02*
X031535D01*
X031496Y059016D02*
Y059095D01*
X030669Y06063D02*
X030748D01*
X030709Y060591D02*
Y060669D01*
X031063Y059843D02*
X031142D01*
X031102Y059803D02*
Y059882D01*
X030669Y059055D02*
X030748D01*
X030709Y059016D02*
Y059095D01*
X034646Y065866D02*
X034724D01*
X034685Y065827D02*
Y065906D01*
X035591Y060669D02*
X035669D01*
X03563Y06063D02*
Y060709D01*
X035591Y059331D02*
X035669D01*
X03563Y059291D02*
Y05937D01*
X050512Y101457D02*
X050591D01*
X050551Y101417D02*
Y101496D01*
X052915Y101573D02*
X052994D01*
X052955Y101533D02*
Y101612D01*
X027143Y087874D02*
X027423D01*
X027283Y087734D02*
Y088014D01*
X05675Y091968D02*
X05703D01*
X05689Y091828D02*
Y092108D01*
X045709Y060118D02*
X045787D01*
X045748Y060079D02*
Y060157D01*
X02126Y077638D02*
X021339D01*
X021299Y077598D02*
Y077677D01*
X020984Y077953D02*
X021063D01*
X021024Y077913D02*
Y077992D01*
X034055Y105669D02*
X034134D01*
X034094Y10563D02*
Y105709D01*
X030984Y105669D02*
X031063D01*
X031024Y10563D02*
Y105709D01*
X02811Y105669D02*
X028189D01*
X02815Y10563D02*
Y105709D01*
X025157Y105669D02*
X025236D01*
X025197Y10563D02*
Y105709D01*
X035787Y106063D02*
X035866D01*
X035827Y106024D02*
Y106102D01*
X032874Y106063D02*
X032953D01*
X032913Y106024D02*
Y106102D01*
X029882Y106063D02*
X029961D01*
X029921Y106024D02*
Y106102D01*
X027008Y106063D02*
X027087D01*
X027047Y106024D02*
Y106102D01*
X022323Y106063D02*
X022402D01*
X022362Y106024D02*
Y106102D01*
X020079Y106063D02*
X020157D01*
X020118Y106024D02*
Y106102D01*
X017756Y106063D02*
X017835D01*
X017795Y106024D02*
Y106102D01*
X015394Y106063D02*
X015472D01*
X015433Y106024D02*
Y106102D01*
X025591Y078504D02*
X025669D01*
X02563Y078465D02*
Y078543D01*
X024724Y078465D02*
X024803D01*
X024764Y078425D02*
Y078504D01*
X023937Y078425D02*
X024016D01*
X023976Y078386D02*
Y078465D01*
X02311Y078386D02*
X023189D01*
X02315Y078346D02*
Y078425D01*
X034528Y095551D02*
X034606D01*
X034567Y095512D02*
Y095591D01*
X031508Y095602D02*
X031587D01*
X031547Y095563D02*
Y095642D01*
X028465Y095591D02*
X028543D01*
X028504Y095551D02*
Y09563D01*
X025563Y095602D02*
X025642D01*
X025602Y095563D02*
Y095642D01*
X037638Y067402D02*
X037717D01*
X037677Y067362D02*
Y067441D01*
X037874Y064724D02*
X037953D01*
X037913Y064685D02*
Y064764D01*
X033307Y064724D02*
X033386D01*
X033346Y064685D02*
Y064764D01*
X031793Y065927D02*
X031872D01*
X031832Y065888D02*
Y065966D01*
X037165Y066614D02*
X037244D01*
X037205Y066575D02*
Y066654D01*
X060285Y108227D02*
X06123D01*
X060757Y107755D02*
Y1087D01*
M02*
