G04 Layer_Color=32768*
%FSTAX24Y24*%
%MOIN*%
G70*
G01*
G75*
%ADD66C,0.0020*%
D66*
X036122Y106634D02*
X040256D01*
X036122D02*
Y109783D01*
X040256D01*
Y106634D02*
Y109783D01*
X019845D02*
X023979D01*
Y106634D02*
Y109783D01*
X019845Y106634D02*
X023979D01*
X019845D02*
Y109783D01*
X030834D02*
X034968D01*
Y106634D02*
Y109783D01*
X030834Y106634D02*
X034968D01*
X030834D02*
Y109783D01*
X01435Y109823D02*
X018484D01*
Y106673D02*
Y109823D01*
X01435Y106673D02*
X018484D01*
X01435D02*
Y109823D01*
X02534Y109783D02*
X029473D01*
Y106634D02*
Y109783D01*
X02534Y106634D02*
X029473D01*
X02534D02*
Y109783D01*
X052106Y109665D02*
X05624D01*
Y106516D02*
Y109665D01*
X052106Y106516D02*
X05624D01*
X052106D02*
Y109665D01*
X051122Y098343D02*
Y101264D01*
X053287Y098343D02*
Y101264D01*
X051122Y098343D02*
X053287D01*
X051122Y101264D02*
X053287D01*
X032028Y066146D02*
X034193D01*
X032028Y063224D02*
X034193D01*
Y066146D01*
X032028Y063224D02*
Y066146D01*
X050965Y050768D02*
Y076949D01*
X012579Y050768D02*
X050965D01*
X012579D02*
Y076949D01*
X050965D01*
X051594Y050768D02*
X055728D01*
X051594D02*
Y053917D01*
X055728D01*
Y050768D02*
Y053917D01*
X058242Y050768D02*
X062376D01*
X058242D02*
Y053917D01*
X062376D01*
Y050768D02*
Y053917D01*
M02*
