M48
;Layer_Color=9474304
;FILE_FORMAT=2:4
INCH,LZ
;TYPE=PLATED
T1F00S00C0.0079
T2F00S00C0.0280
T3F00S00C0.0394
T5F00S00C0.0402
T6F00S00C0.0433
T8F00S00C0.0551
T9F00S00C0.0945
T10F00S00C0.1181
%
T01
X031496Y059055
X032283
X032677Y059843
X03189
X032283Y06063
X031496
X03563Y060669
Y059331
X045748Y060118
X031102Y059843
X030709Y06063
Y059055
X020472Y059843
X019685
X018898
X01811
X017323
X016535
X015748
X016142Y06063
X016929
X017717
X018504
X019291
X020079
X020866
X020472Y061417
X019685
X018898
X01811
X017323
X016535
X015748
X016142Y062205
X016929
X017717
X018504
X019291
X020079
X020866
X015354
X014961Y061417
X015354Y06063
X014961Y059843
Y062992
X015354Y06378
X014961Y064567
X015354Y065354
X014961Y066142
X015354Y066929
X014961Y067717
X015354Y068504
X014961Y069291
X014173Y075591
X013386
X01378Y076378
X014173Y077165
X013386
X01378Y077953
X021024Y077953
X021299Y077638
X020472Y069291
X019685
X018898
X01811
X017323
X016535
X015748
X016142Y068504
X016929
X017717
X018504
X019291
X020079
X020866
X020472Y067717
X019685
X018898
X01811
X017323
X016535
X015748
X016142Y066929
X016929
X017717
X018504
X019291
X020079
X020866
X020472Y066142
X019685
X018898
X01811
X017323
X016535
X015748
X016142Y065354
X016929
X017717
X018504
X019291
X020079
X020866
X020472Y064567
X019685
X018898
X01811
X017323
X016535
X015748
X016142Y06378
X016929
X017717
X018504
X019291
X020079
X020866
X020472Y062992
X019685
X018898
X01811
X017323
X016535
X015748
X031832Y065927
X033346Y064724
X034685Y065866
X037205Y066614
X037677Y067402
X037913Y064724
X040945Y064567
X041732
X04252
X043307
X044095
X044882
X044488Y065354
X043701
X042913
X042126
X041339
X040551
X040945Y066142
X041732
X04252
X043307
X044095
X044882
X044488Y066929
X043701
X042913
X042126
X041339
X040551
X040945Y067717
X041732
X04252
X043307
X044095
X044882
X044488Y06378
X043701
X042913
X042126
X041339
X040551
X040945Y062992
X041732
X04252
X043307
X044095
X044882
X041732Y071654
X040945
X041339Y072441
X042126
X041732Y073228
X040945
X041339Y074016
X042126
X041732Y074803
X040945
X041339Y075591
X042126
X041732Y076378
X040945
X051969Y066142
X052756
X053543
X054331
X055118
X055906
X056693
X05748
X058268
X059055
X059843
X06063
X061024Y065354
X060236
X059449
X058661
X057874
X057087
X056299
X055512
X054724
X053937
X05315
X052362
X052756Y064567
X053543
X054331
X055118
X055906
X056693
X05748
X058268
X059055
X059843
X06063
X061024Y06378
X060236
X059449
X058661
X057874
X057087
X056299
X055512
X054724
X053937
X05315
X052362
X052756Y062992
X053543
X054331
X055118
X055906
X056693
X05748
X058268
X059055
X059843
X06063
X051969
Y064567
X052756Y083465
X053543
X054331
X055118
X055906
X056693
X05748
X058268
X058661Y084252
X057874
X057087
X056299
X055512
X054724
X053937
X05315
X053543Y085039
X054331
X055118
X055906
X056693
X05748
X058268
X058661Y085827
X057874
X057087
X056299
X055512
X054724
X053937
X05315
X053543Y086614
X054331
X055118
X055906
X056693
X05748
X058268
X058661Y087402
X057874
X057087
X056299
X055512
X054724
X053937
X05315
X052756Y086614
Y085039
X035827
X035039
X034252
X033465
X032677
X03189
X032283Y085827
X033071
X033858
X034646
X035433
X035827Y086614
X035039
X034252
X033465
X032677
X03189
X031496Y085827
Y084252
X032283
X033071
X033858
X034646
X035433
X030709
X029921
X030315Y085039
X031102
X030709Y085827
X031102Y086614
X02563Y078504
X024764Y078465
X023976Y078425
X02315Y078386
X014173Y07874
X013386
Y093701
X012598
X011811
X012205Y094488
X012992
X01378
X013386Y095276
X012598
X011811
X012205Y096063
X012992
X01378
X013386Y09685
X012598
X011811
X012205Y097638
X012992
X01378
X013386Y098425
X012598
X011811
X012205Y099213
X012992
X01378
X013386Y1
X012598
X011811
X012205Y100787
X012992
X01378
X013386Y101575
X012598
X011811
X012205Y102362
X012992
X01378
X013386Y10315
X012598
X011811
X015433Y106063
X017795
X020118
X022362
X025197Y105669
X027047Y106063
X02815Y105669
X029921Y106063
X031024Y105669
X028504Y095591
X025602Y095602
X031547Y095602
X034567Y095551
X03937Y096063
X040157
X040945
X041732
X04252
X043307
X043701Y09685
X042913
X042126
X041339
X040551
X039764
X040157Y097638
X040945
X041732
X04252
X043307
X043701Y098425
X042913
X042126
X041339
X040551
X039764
X040157Y099213
X040945
X041732
X04252
X043307
X043701Y095276
X042913
X042126
X041339
X040551
X039764
X040157Y094488
X040945
X041732
X04252
X043307
X03937
Y097638
X035827Y106063
X034094Y105669
X032913Y106063
X050551Y101457
X052955Y101573
T02
X03211Y062402
X03311
X05689Y091968
X027283Y087874
T03
X031551Y053358
Y054358
X032551
Y053358
X033551
Y054358
X034551
Y053358
X035551
Y054358
X036551
Y053358
X037551
Y054358
X030551
X029551
X028551
X027551
X026551
X025551
X024551
X023551
X022551
X021551
X020551
X019551
X018551
X017551
X016551
Y053358
X017551
X018551
X019551
X020551
X021551
X022551
X023551
X024551
X025551
X026551
X027551
X028551
X029551
X030551
X015551
X014551
X013551
Y054358
X014551
X015551
Y073358
X014551
X013551
Y074358
X014551
X015551
X016551
Y073358
X017551
Y074358
X018551
Y073358
X019551
Y074358
X020551
Y073358
X021551
Y074358
X022551
Y073358
X023551
Y074358
X024551
Y073358
X025551
Y074358
X026551
Y073358
X027551
Y074358
X028551
Y073358
X029551
Y074358
X030551
Y073358
X031551
Y074358
X032551
Y073358
X033551
Y074358
X034551
Y073358
X035551
Y074358
X036551
Y073358
X037551
Y074358
T05
X05189Y068638
Y069638
Y070638
Y071638
Y072638
Y073638
Y074638
X061417Y072638
Y071638
Y070638
Y069638
Y068638
X054953Y080433
X053953
X052953
X051953
X017449Y080276
Y081276
X016449
Y080276
X015449
Y081276
X014449
X013449
Y080276
X014449
T06
X047024Y078161
Y079161
X046024
Y078161
X045024
Y079161
X045169Y082228
X046169
Y083228
Y084228
X045169
Y083228
X044882Y087228
Y088228
Y089228
X046244Y108268
X047244
X048244
X049244
T08
X052677Y052441
X054646
X059325
X061293
X015433Y10815
X017402
X020928Y10811
X022896
X026422
X028391
X031917
X033885
X037205Y108307
X039173
X053189Y107992
X055157
T09
X060757Y108227
T10
X041929Y079331
X012126Y107717
X041929
M30
